PathFileType	4	(X/Y/Z)	Walk1.trc
DataRate	CameraRate	NumFrames	NumMarkers	Units	OrigDataRate	OrigDataStartFrame	OrigNumFrames
200.000000	200.000000	8	59	mm	200.000000	471	593
Frame#	Times		CLAV		STRN		LASI		RASI		RACR1		RFA1		RWRU		LACR1		LUA1		LFA1		LCAR		RTH2		LTH3		LTH2		LLFC		LTB3		LTB4		LToe		LTB1		RUA1		RElbow		RTH4		LTH4		LMMAL		LMT1		LTB2		LMT5		LTH1		RTH1		RCAR		LLMAL		RBack		C7		RFHD		RTH3		LFHD		RPSI		RWRR		T10		LPSI		RBHD		RLFC		LElbow		RTB1		LWRU		RElbowM		RTB4		RTB2		RToe		LBHD		LWRR		RTB3		RMT1		LElbowM		RCAL		RMT5		RLMAL		RMMAL		LCAL
			X1	Y1	Z1	X2	Y2	Z2	X3	Y3	Z3	X4	Y4	Z4	X5	Y5	Z5	X6	Y6	Z6	X7	Y7	Z7	X8	Y8	Z8	X9	Y9	Z9	X10	Y10	Z10	X11	Y11	Z11	X12	Y12	Z12	X13	Y13	Z13	X14	Y14	Z14	X15	Y15	Z15	X16	Y16	Z16	X17	Y17	Z17	X18	Y18	Z18	X19	Y19	Z19	X20	Y20	Z20	X21	Y21	Z21	X22	Y22	Z22	X23	Y23	Z23	X24	Y24	Z24	X25	Y25	Z25	X26	Y26	Z26	X27	Y27	Z27	X28	Y28	Z28	X29	Y29	Z29	X30	Y30	Z30	X31	Y31	Z31	X32	Y32	Z32	X33	Y33	Z33	X34	Y34	Z34	X35	Y35	Z35	X36	Y36	Z36	X37	Y37	Z37	X38	Y38	Z38	X39	Y39	Z39	X40	Y40	Z40	X41	Y41	Z41	X42	Y42	Z42	X43	Y43	Z43	X44	Y44	Z44	X45	Y45	Z45	X46	Y46	Z46	X47	Y47	Z47	X48	Y48	Z48	X49	Y49	Z49	X50	Y50	Z50	X51	Y51	Z51	X52	Y52	Z52	X53	Y53	Z53	X54	Y54	Z54	X55	Y55	Z55	X56	Y56	Z56	X57	Y57	Z57	X58	Y58	Z58	X59	Y59	Z59

471	2.355	363.76	1334.3	26.142	442.8	1112.9	27.912	388.18	935.42	-103.26	392.44	938.14	171.25	319.93	1346.5	201.59	448.34	923.08	274.09	470.04	812.32	276.67	293.07	1350.3	-139.84	246.21	1144.7	-184.64	246.37	903.39	-217.71	235.54	741.59	-228.86	337.5	646.53	151.6	395.65	558.48	-118.74	425.48	667.73	-96.933	425.71	458.98	-103.31	531.76	192.78	-38.355	514.75	283.57	-39.905	707.31	94.296	-86.278	493.71	376.6	-33.29	333.46	1138.2	267.64	336.93	1030.4	294.47	271.6	643.5	181.05	362.85	640.91	-134.05	542.8	91.035	-4.0581	674.95	86.903	-57.959	479.21	279.5	-102.93	638.42	53.927	-115.97	328.74	731.52	-144.71	283.68	734.96	205.81	530.01	799.74	263.58	522.84	69.519	-81.061	198.77	1306.4	136.97	239.48	1413.3	37.704	428.85	1565.5	73.74	261.14	552.34	161.08	420.76	1565.6	1.088	179.41	971.58	97.914	504.7	843.66	219.57	202.97	1127.4	36.951	176.71	960.67	-16.612	255.5	1546.9	113.48	234.44	448.05	144.82	214.55	1029.2	-193.85	218.6	322.73	64.934	194.93	792.05	-230.71	311.01	1002.4	215.16	175.26	240.52	59.331	166.11	243.94	129.84	249.65	26.823	98.737	248.58	1556.9	-14.001	250.93	782	-185.74	132.01	159.06	53.381	206.5	37.198	60.627	205.25	1015.3	-124.62	4.8153	44.419	50.844	156.27	21.74	143.26	55.167	71.876	99.684	77.799	84.333	20.655	493	24.893	-21.404
472	2.36	369.55	1333.2	25.656	448.51	1111.8	27.581	393.97	934.08	-103.25	397.65	937.2	171.31	325.69	1345.7	201.08	454.83	922.68	273.8	476.91	812	276.36	298.94	1349.1	-140.35	251.48	1143.6	-184.89	250.06	902.4	-217.86	237.89	740.64	-229.06	341.55	645.5	151.2	400.62	557.18	-118.77	430.53	666.38	-96.856	431.3	457.95	-103.43	541.12	193.08	-38.611	522.74	283.66	-39.962	718.76	96.85	-85.431	500.18	376.39	-33.152	339.4	1137.5	267.32	343.1	1029.7	294.26	275.84	642.87	181	368.01	639.65	-134.22	553.55	91.326	-4.4817	686.2	88.904	-57.523	487.58	279.22	-103.19	650.66	55.387	-115.77	334.09	730.31	-145.09	288.33	734.23	205.65	536.94	799.65	263.25	534.38	69.728	-81.674	204.5	1305.5	136.47	245.28	1412.4	37.156	434.39	1564.8	73.024	264.86	551.71	160.99	426.29	1564.8	0.38854	184.86	970.7	97.244	511.43	843.46	219.25	208.62	1126.5	36.402	182.4	959.71	-17.253	261.07	1545.9	112.79	237.43	447.56	144.69	219.21	1028.3	-193.82	220.75	322.2	64.937	197.71	791.45	-230.71	317.27	1001.5	214.95	176.77	240.31	59.33	167.52	243.9	129.8	249.72	26.801	98.779	254.13	1555.8	-14.688	253.85	780.9	-186.01	132.92	159.17	53.402	206.55	37.15	60.587	210.23	1014.5	-124.52	4.9439	45.378	50.849	156.29	21.776	143.2	55.41	72.55	99.674	78.176	84.812	20.707	504.73	24.478	-22.341
473	2.365	375.38	1332.2	25.14	454.25	1110.6	27.216	399.8	932.76	-103.26	402.9	936.26	171.34	331.47	1344.8	200.54	461.26	922.24	273.51	483.66	811.63	276.06	304.84	1348	-140.89	256.8	1142.6	-185.18	253.82	901.42	-218.03	240.36	739.71	-229.27	345.66	644.48	150.83	405.78	555.97	-118.8	435.72	665.13	-96.78	437	456.99	-103.55	550.04	193.29	-38.829	530.47	283.66	-40.005	729.48	99.085	-84.631	506.59	376.12	-33.025	345.33	1136.7	266.97	349.22	1029	294.02	280.1	642.24	180.93	373.33	638.48	-134.41	563.65	91.549	-4.8497	696.74	90.658	-57.11	495.68	278.93	-103.43	662.1	56.622	-115.55	339.56	729.17	-145.47	293.02	733.5	205.47	543.76	799.49	262.94	545.2	69.897	-82.225	210.26	1304.7	135.94	251.1	1411.5	36.582	439.96	1564.1	72.284	268.61	551.09	160.91	431.84	1563.9	-0.33357	190.36	969.81	96.559	518.07	843.21	218.94	214.3	1125.6	35.829	188.13	958.76	-17.909	266.67	1545	112.09	240.47	447.08	144.56	223.92	1027.5	-193.84	222.94	321.68	64.943	200.59	790.85	-230.72	323.5	1000.6	214.72	178.32	240.12	59.345	168.95	243.89	129.78	249.78	26.785	98.815	259.71	1554.7	-15.398	256.87	779.82	-186.28	133.85	159.32	53.447	206.59	37.105	60.548	215.24	1013.7	-124.46	5.0738	46.402	50.883	156.31	21.806	143.13	55.663	73.276	99.693	78.559	85.338	20.787	515.69	24.108	-23.185
474	2.37	381.22	1331.2	24.593	460.02	1109.5	26.819	405.68	931.47	-103.28	408.2	935.33	171.34	337.28	1343.9	199.98	467.62	921.75	273.22	490.31	811.2	275.76	310.77	1346.9	-141.46	262.17	1141.6	-185.51	257.64	900.45	-218.22	242.94	738.8	-229.47	349.81	643.47	150.48	411.15	554.87	-118.85	441.07	664	-96.704	442.81	456.1	-103.67	558.51	193.4	-39.004	537.94	283.59	-40.034	739.48	100.93	-83.883	512.95	375.79	-32.911	351.25	1135.9	266.59	355.32	1028.2	293.75	284.4	641.61	180.85	378.82	637.4	-134.61	573.1	91.682	-5.154	706.57	92.105	-56.717	503.5	278.61	-103.65	672.73	57.58	-115.33	345.18	728.11	-145.86	297.74	732.77	205.29	550.47	799.26	262.64	555.28	69.997	-82.705	216.05	1303.9	135.38	256.94	1410.5	35.98	445.55	1563.4	71.52	272.42	550.47	160.82	437.42	1563.1	-1.078	195.9	968.93	95.862	524.63	842.89	218.65	220.02	1124.7	35.236	193.9	957.82	-18.579	272.29	1544	111.36	243.57	446.61	144.43	228.66	1026.6	-193.9	225.17	321.17	64.954	203.58	790.25	-230.73	329.67	999.63	214.46	179.9	239.96	59.379	170.42	243.92	129.78	249.84	26.772	98.845	265.31	1553.6	-16.13	259.99	778.76	-186.54	134.8	159.51	53.519	206.63	37.063	60.509	220.28	1012.9	-124.44	5.2067	47.497	50.948	156.32	21.828	143.07	55.929	74.059	99.741	78.953	85.915	20.895	525.86	23.768	-23.916
475	2.375	387.1	1330.2	24.015	465.82	1108.5	26.392	411.61	930.22	-103.33	413.55	934.41	171.32	343.11	1343	199.38	473.9	921.21	272.93	496.84	810.73	275.46	316.72	1345.8	-142.06	267.57	1140.6	-185.89	261.54	899.49	-218.42	245.64	737.91	-229.67	354.01	642.48	150.15	416.72	553.88	-118.9	446.59	662.99	-96.63	448.74	455.27	-103.79	566.53	193.39	-39.132	545.14	283.41	-40.046	748.75	102.31	-83.186	519.26	375.4	-32.812	357.17	1135.1	266.19	361.37	1027.5	293.46	288.73	640.98	180.76	384.5	636.42	-134.81	581.89	91.703	-5.3888	715.68	93.186	-56.343	511.04	278.26	-103.83	682.53	58.216	-115.11	350.94	727.14	-146.26	302.5	732.05	205.1	557.06	798.96	262.36	564.61	70.003	-83.106	221.86	1303	134.78	262.8	1409.6	35.347	451.17	1562.7	70.734	276.28	549.86	160.72	443.02	1562.3	-1.8443	201.49	968.05	95.156	531.09	842.51	218.36	225.77	1123.8	34.62	199.7	956.9	-19.26	277.93	1543	110.61	246.74	446.15	144.3	233.45	1025.8	-193.99	227.45	320.68	64.972	206.67	789.66	-230.75	335.78	998.71	214.19	181.51	239.83	59.43	171.94	243.98	129.8	249.9	26.762	98.871	270.94	1552.4	-16.882	263.2	777.73	-186.8	135.77	159.74	53.619	206.66	37.022	60.471	225.36	1012.1	-124.46	5.3446	48.667	51.045	156.34	21.843	143.01	56.215	74.901	99.821	79.362	86.55	21.03	535.24	23.446	-24.526
476	2.38	393	1329.2	23.406	471.65	1107.4	25.934	417.59	929.01	-103.41	418.93	933.51	171.27	348.97	1342.1	198.75	480.11	920.65	272.63	503.26	810.21	275.17	322.69	1344.7	-142.69	273	1139.6	-186.3	265.51	898.55	-218.65	248.46	737.04	-229.86	358.28	641.5	149.83	422.51	553.01	-118.96	452.28	662.1	-96.557	454.78	454.5	-103.91	574.09	193.25	-39.211	552.09	283.14	-40.041	757.3	103.17	-82.533	525.52	374.95	-32.727	363.08	1134.4	265.75	367.38	1026.7	293.14	293.11	640.34	180.65	390.36	635.55	-135.02	590.04	91.596	-5.5515	724.07	93.852	-55.978	518.29	277.86	-103.98	691.5	58.49	-114.87	356.86	726.27	-146.65	307.3	731.34	204.89	563.54	798.59	262.1	573.2	69.895	-83.426	227.7	1302.2	134.15	268.68	1408.7	34.681	456.81	1562	69.926	280.2	549.25	160.63	448.64	1561.6	-2.6316	207.13	967.19	94.442	537.47	842.07	218.08	231.57	1122.9	33.984	205.56	956.01	-19.949	283.61	1542	109.85	249.97	445.71	144.17	238.28	1025	-194.13	229.77	320.21	64.996	209.88	789.07	-230.79	341.83	997.81	213.9	183.16	239.73	59.5	173.5	244.08	129.84	249.96	26.753	98.89	276.59	1551.3	-17.653	266.51	776.73	-187.06	136.78	160	53.748	206.69	36.982	60.435	230.46	1011.4	-124.53	5.4902	49.92	51.178	156.36	21.85	142.96	56.525	75.808	99.934	79.788	87.247	21.194	543.79	23.137	-25.009
477	2.385	398.93	1328.3	22.765	477.5	1106.4	25.448	423.61	927.85	-103.52	424.36	932.62	171.18	354.84	1341.2	198.09	486.24	920.04	272.34	509.56	809.64	274.88	328.68	1343.7	-143.35	278.47	1138.7	-186.76	269.55	897.62	-218.9	251.41	736.2	-230.05	362.62	640.52	149.53	428.49	552.26	-119.04	458.15	661.34	-96.486	460.93	453.79	-104.04	581.21	192.98	-39.24	558.78	282.76	-40.017	765.14	103.45	-81.914	531.73	374.43	-32.655	368.99	1133.6	265.29	373.36	1026	292.8	297.55	639.71	180.52	396.41	634.8	-135.24	597.53	91.349	-5.6422	731.78	94.06	-55.614	525.26	277.41	-104.09	699.65	58.373	-114.62	362.93	725.51	-147.04	312.15	730.64	204.67	569.9	798.16	261.84	581.04	69.663	-83.666	233.56	1301.3	133.48	274.58	1407.8	33.983	462.48	1561.4	69.097	284.19	548.64	160.52	454.29	1560.8	-3.4389	212.81	966.34	93.724	543.75	841.58	217.81	237.41	1122.1	33.327	211.45	955.14	-20.645	289.31	1541.1	109.06	253.29	445.27	144.04	243.14	1024.2	-194.31	232.16	319.76	65.027	213.19	788.48	-230.84	347.82	996.92	213.6	184.87	239.66	59.589	175.12	244.22	129.9	250.01	26.744	98.901	282.26	1550.3	-18.443	269.93	775.76	-187.31	137.82	160.32	53.906	206.72	36.943	60.4	235.58	1010.6	-124.64	5.6468	51.263	51.348	156.39	21.848	142.91	56.863	76.785	100.08	80.236	88.012	21.39	551.53	22.84	-25.367
478	2.39	404.88	1327.3	22.093	483.39	1105.4	24.934	429.68	926.75	-103.66	429.82	931.74	171.07	360.74	1340.3	197.39	492.29	919.41	272.04	515.75	809.03	274.6	334.69	1342.6	-144.04	283.97	1137.7	-187.25	273.66	896.72	-219.17	254.5	735.37	-230.24	367.03	639.56	149.24	434.68	551.63	-119.15	464.18	660.7	-96.419	467.18	453.15	-104.18	587.9	192.57	-39.22	565.22	282.28	-39.974	772.31	103.12	-81.31	537.89	373.86	-32.593	374.89	1132.9	264.79	379.29	1025.3	292.43	302.04	639.08	180.37	402.62	634.16	-135.46	604.38	90.955	-5.6641	738.8	93.779	-55.238	531.97	276.92	-104.17	706.99	57.847	-114.37	369.16	724.85	-147.42	317.04	729.94	204.43	576.13	797.66	261.61	588.15	69.303	-83.828	239.44	1300.5	132.78	280.49	1406.9	33.249	468.17	1560.7	68.249	288.25	548.04	160.41	459.96	1560	-4.2654	218.55	965.5	93.002	549.93	841.03	217.55	243.31	1121.2	32.652	217.39	954.32	-21.344	295.03	1540.1	108.26	256.7	444.84	143.9	248.04	1023.4	-194.52	234.61	319.32	65.065	216.63	787.9	-230.9	353.75	996.05	213.26	186.62	239.62	59.696	176.81	244.4	129.98	250.07	26.734	98.903	287.95	1549.2	-19.249	273.44	774.81	-187.55	138.89	160.68	54.095	206.75	36.905	60.368	240.73	1009.9	-124.8	5.8191	52.703	51.56	156.41	21.837	142.86	57.234	77.836	100.26	80.708	88.85	21.621	558.46	22.56	-25.61
